<svg id="Layer_1" data-name="Layer 1" xmlns="http://www.w3.org/2000/svg" viewBox="0 0 157.77 154.02"><defs><style>.cls-1{fill:#8cbae7;}.cls-2{fill:#90caf8;}.cls-3{fill:#5298dc;}.cls-4{fill:#58aff5;}</style></defs><title>logo</title><path class="cls-1" d="M102.19,176.44c-5.94-2.3-12-4.38-17.81-7C64.76,160.81,45.2,152,25.63,143.16c-.89-.4-1.69-1-3-1.78.79-1.4,1.39-2.69,2.17-3.86Q61.72,82,98.7,26.55a28.64,28.64,0,0,1,2.23-2.6H102q0,9.57-.07,19.13a14.81,14.81,0,0,0-1.28,1.47Q72,87.42,43.42,130.33a17.66,17.66,0,0,0-1.34,3.34c7.25,3.24,14.2,6.38,21.18,9.46q19.37,8.52,38.76,17Q102.11,168.28,102.19,176.44Z" transform="translate(-22.61 -22.42)"/><path class="cls-2" d="M102,43.08q0-9.55.07-19.13a16.45,16.45,0,0,1,2.45,2.41q37.45,56.34,74.85,112.72a18,18,0,0,1,1,2.45c-2.86,1.37-5.59,2.74-8.38,4Q139.92,160,107.82,174.41c-1.82.81-3.75,1.36-5.63,2q-.07-8.16-.17-16.32l0-.12,59.64-26.54c-1.37-2.31-2.13-3.75-3-5.1q-18.49-27.74-37.06-55.43c-6.09-9.05-12.35-18-18.54-27Z" transform="translate(-22.61 -22.42)"/><path class="cls-2" d="M102.06,24h-1.13l.58-1.53Z" transform="translate(-22.61 -22.42)"/><path class="cls-3" d="M102,43.08,103,46a34.23,34.23,0,0,0-1,5.68Q102,105.82,102,160l0,.12q-19.38-8.49-38.76-17c-7-3.08-13.93-6.22-21.18-9.46a17.66,17.66,0,0,1,1.34-3.34Q72,87.42,100.68,44.55A14.81,14.81,0,0,1,102,43.08Z" transform="translate(-22.61 -22.42)"/><path class="cls-4" d="M102,160q0-54.18,0-108.36A34.23,34.23,0,0,1,103,46c6.19,9,12.45,17.92,18.54,27q18.61,27.66,37.06,55.43c.91,1.35,1.67,2.79,3,5.1Z" transform="translate(-22.61 -22.42)"/></svg>